# xmcd
#
# Track frame offsets: 
#        150
#        11072
#        27930
#        40740
#        56532
#        70035
#        83272
#        93785
#        108705
#        123617
#        138900
#        152750
#        164302
#
# Disc length: 2343 seconds
#
# Revision: 2
# Processed by: cddbd v1.4PL0 Copyright (c) Steve Scherf et al.
# Submitted via: ExactAudioCopy v0.90b2
#
DISCID=9b09250d
DTITLE=Janie Frickie - Now and Then
DYEAR=1900
DGENRE=Country
TTITLE0=She's Single Again
TTITLE1=It Ain't Easy Being Easy
TTITLE2=He's A Heartache
TTITLE3=Always Have, Always Will
TTITLE4=Your Heart's Not In It
TTITLE5=I'll Need Someone To Hold Me
TTITLE6=Do Me With Love
TTITLE7=You Don't Know Love
TTITLE8=Let's Try Again
TTITLE9=The First Word In Memory Is Me
TTITLE10=Somebody Else's Fire
TTITLE11=If The Fall Don't GEt YOu
TTITLE12=Where's The Fire
EXTD=
EXTT0=
EXTT1=
EXTT2=
EXTT3=
EXTT4=
EXTT5=
EXTT6=
EXTT7=
EXTT8=
EXTT9=
EXTT10=
EXTT11=
EXTT12=
PLAYORDER=
